<svg xmlns="http://www.w3.org/2000/svg" viewBox="0 0 1600 900" role="img" aria-label="QuantumTrade Pro cockpit HUD">
  <defs>
    <linearGradient id="bg2" x1="0" y1="0" x2="1" y2="1">
      <stop offset="0%" stop-color="#010208"/>
      <stop offset="100%" stop-color="#0b0522"/>
    </linearGradient>
    <pattern id="grid2" width="32" height="32" patternUnits="userSpaceOnUse">
      <path d="M32 0H0V32" fill="none" stroke="#163050" stroke-width="0.6"/>
    </pattern>
    <filter id="g"><feGaussianBlur stdDeviation="2.4"/><feMerge><feMergeNode/><feMergeNode in="SourceGraphic"/></feMerge></filter>
  </defs>
  <rect width="1600" height="900" fill="url(#bg2)"/>
  <rect width="1600" height="900" fill="url(#grid2)" opacity="0.35"/>
  <rect x="40" y="28" width="1520" height="844" rx="18" fill="#04070f" stroke="#22d3ee" stroke-width="2" filter="url(#g)"/>
  <rect x="56" y="44" width="1488" height="56" rx="8" fill="none" stroke="#22d3ee" stroke-width="1"/>
  <text x="80" y="80" font-family="ui-monospace, Menlo, Consolas, monospace" font-size="22" letter-spacing="4" fill="#a5f3fc">QUANTUMTRADE PRO</text>
  <text x="800" y="80" text-anchor="middle" font-family="ui-monospace, Menlo, Consolas, monospace" font-size="22" letter-spacing="4" fill="#e879ff">COCKPIT</text>
  <text x="1520" y="80" text-anchor="end" font-family="ui-monospace, Menlo, Consolas, monospace" font-size="18" letter-spacing="3" fill="#67e8f9">MODE  PAPER</text>
  <g font-family="ui-monospace, Menlo, Consolas, monospace">
    <rect x="72" y="120" width="360" height="250" rx="10" fill="#061018" stroke="#22d3ee"/>
    <text x="92" y="150" font-size="13" letter-spacing="2" fill="#67e8f9">EQUITY CURVE</text>
    <text x="92" y="186" font-size="28" fill="#ecfeff">$100,214.73</text>
    <text x="330" y="186" font-size="14" fill="#4ade80">+1.38%</text>
    <polyline points="100,330 130,318 160,322 190,300 220,292 250,270 280,274 310,250 340,246 400,220" fill="none" stroke="#22d3ee" stroke-width="2.2"/>
    <text x="92" y="348" font-size="11" fill="#64748b">PAPER ACCOUNT · 24H</text>
  </g>
  <g font-family="ui-monospace, Menlo, Consolas, monospace">
    <rect x="452" y="120" width="540" height="250" rx="10" fill="#061018" stroke="#22d3ee"/>
    <text x="472" y="150" font-size="13" letter-spacing="2" fill="#67e8f9">BTCUSDC · 15m · ATR TRAIL</text>
    <g stroke-width="3">
      <line x1="500" y1="300" x2="500" y2="230" stroke="#22d3ee"/>
      <line x1="540" y1="280" x2="540" y2="210" stroke="#e879ff"/>
      <line x1="580" y1="260" x2="580" y2="200" stroke="#22d3ee"/>
      <line x1="620" y1="250" x2="620" y2="190" stroke="#22d3ee"/>
      <line x1="660" y1="240" x2="660" y2="185" stroke="#e879ff"/>
      <line x1="700" y1="230" x2="700" y2="170" stroke="#22d3ee"/>
      <line x1="740" y1="220" x2="740" y2="165" stroke="#22d3ee"/>
      <line x1="780" y1="210" x2="780" y2="160" stroke="#22d3ee"/>
      <line x1="820" y1="205" x2="820" y2="155" stroke="#e879ff"/>
      <line x1="860" y1="198" x2="860" y2="150" stroke="#22d3ee"/>
    </g>
    <polyline points="490,310 560,300 640,290 740,270 900,250" fill="none" stroke="#e879ff" stroke-dasharray="6 5" stroke-width="1.6"/>
    <text x="472" y="348" font-size="12" fill="#94a3b8">ATR(14) 812.47    TRAIL 66,341</text>
  </g>
  <g font-family="ui-monospace, Menlo, Consolas, monospace">
    <rect x="1012" y="120" width="516" height="250" rx="10" fill="#061018" stroke="#e879ff"/>
    <text x="1032" y="150" font-size="13" letter-spacing="2" fill="#f5d0fe">EURUSD · 15m</text>
    <polyline points="1040,240 1080,220 1120,250 1160,210 1200,230 1240,200 1280,260 1320,230 1360,270 1400,240 1460,255" fill="none" stroke="#e879ff" stroke-width="2"/>
    <text x="1032" y="348" font-size="12" fill="#94a3b8">ATR 0.00127    RANGE 0.00741</text>
  </g>
  <g font-family="ui-monospace, Menlo, Consolas, monospace" font-size="13">
    <rect x="72" y="390" width="360" height="280" rx="10" fill="#061018" stroke="#22d3ee"/>
    <text x="92" y="420" letter-spacing="2" fill="#67e8f9">MAKER GTX TICKET</text>
    <text x="92" y="456" fill="#94a3b8">PAIR</text><text x="300" y="456" text-anchor="end" fill="#ecfeff">BTCUSDC</text>
    <text x="92" y="488" fill="#94a3b8">SIDE</text><text x="300" y="488" text-anchor="end" fill="#e879ff">BUY</text>
    <text x="92" y="520" fill="#94a3b8">TYPE</text><text x="300" y="520" text-anchor="end" fill="#ecfeff">LIMIT GTX</text>
    <text x="92" y="552" fill="#94a3b8">PRICE</text><text x="300" y="552" text-anchor="end" fill="#ecfeff">66,800.00</text>
    <text x="92" y="584" fill="#94a3b8">SIZE</text><text x="300" y="584" text-anchor="end" fill="#ecfeff">0.250</text>
    <rect x="92" y="610" width="320" height="36" rx="6" fill="none" stroke="#e879ff"/>
    <text x="252" y="634" text-anchor="middle" fill="#f5d0fe">POST-ONLY · PAPER</text>
  </g>
  <g font-family="ui-monospace, Menlo, Consolas, monospace">
    <rect x="452" y="390" width="540" height="280" rx="10" fill="#061018" stroke="#e879ff"/>
    <text x="472" y="420" font-size="13" letter-spacing="2" fill="#f5d0fe">FINMEM LAYERS</text>
    <rect x="520" y="470" width="280" height="36" rx="4" fill="none" stroke="#22d3ee"/>
    <rect x="500" y="520" width="320" height="36" rx="4" fill="none" stroke="#67e8f9"/>
    <rect x="480" y="570" width="360" height="36" rx="4" fill="none" stroke="#e879ff"/>
    <text x="660" y="494" text-anchor="middle" font-size="13" fill="#a5f3fc">SHALLOW  14D</text>
    <text x="660" y="544" text-anchor="middle" font-size="13" fill="#67e8f9">INTERMEDIATE  90D</text>
    <text x="660" y="594" text-anchor="middle" font-size="13" fill="#f5d0fe">DEEP  365D</text>
  </g>
  <g font-family="ui-monospace, Menlo, Consolas, monospace">
    <rect x="1012" y="390" width="516" height="280" rx="10" fill="#061018" stroke="#22d3ee"/>
    <text x="1032" y="420" font-size="13" letter-spacing="2" fill="#67e8f9">RISK CONTROL</text>
    <circle cx="1120" cy="530" r="52" fill="none" stroke="#1e293b" stroke-width="10"/>
    <circle cx="1120" cy="530" r="52" fill="none" stroke="#e879ff" stroke-width="10" stroke-dasharray="80 247" transform="rotate(-90 1120 530)"/>
    <text x="1120" y="526" text-anchor="middle" font-size="16" fill="#f5d0fe">20%</text>
    <text x="1120" y="546" text-anchor="middle" font-size="10" fill="#94a3b8">DD HALT</text>
    <circle cx="1270" cy="530" r="52" fill="none" stroke="#1e293b" stroke-width="10"/>
    <circle cx="1270" cy="530" r="52" fill="none" stroke="#22d3ee" stroke-width="10" stroke-dasharray="40 247" transform="rotate(-90 1270 530)"/>
    <text x="1270" y="526" text-anchor="middle" font-size="16" fill="#a5f3fc">5%</text>
    <text x="1270" y="546" text-anchor="middle" font-size="10" fill="#94a3b8">DAILY</text>
    <circle cx="1420" cy="530" r="52" fill="none" stroke="#1e293b" stroke-width="10"/>
    <circle cx="1420" cy="530" r="52" fill="none" stroke="#67e8f9" stroke-width="10" stroke-dasharray="20 247" transform="rotate(-90 1420 530)"/>
    <text x="1420" y="526" text-anchor="middle" font-size="16" fill="#ecfeff">0.07</text>
    <text x="1420" y="546" text-anchor="middle" font-size="10" fill="#94a3b8">EXPOSURE</text>
    <text x="1032" y="640" font-size="12" fill="#94a3b8">JESSE META p̂  0.562     CONF  89.4%</text>
  </g>
  <rect x="72" y="690" width="1456" height="150" rx="10" fill="#061018" stroke="#22d3ee"/>
  <text x="92" y="726" font-family="ui-monospace, Menlo, Consolas, monospace" font-size="13" letter-spacing="2" fill="#67e8f9">CONFORMAL UNCERTAINTY GATE</text>
  <rect x="92" y="750" width="1100" height="22" rx="4" fill="#0b1220" stroke="#163050"/>
  <rect x="92" y="750" width="780" height="22" rx="4" fill="#22d3ee" opacity="0.85"/>
  <rect x="872" y="750" width="140" height="22" fill="#e879ff" opacity="0.9"/>
  <text x="92" y="806" font-family="ui-monospace, Menlo, Consolas, monospace" font-size="12" fill="#94a3b8">COVERAGE TARGET 90%    STATUS  GATE OPEN    PAPER ONLY</text>
  <text x="1488" y="806" text-anchor="end" font-family="ui-monospace, Menlo, Consolas, monospace" font-size="12" fill="#4ade80">● HEALTHY</text>
</svg>
